<?xml version="1.0" standalone="no"?>
<!DOCTYPE svg PUBLIC "-//W3C//DTD SVG 20010904//EN"
 "http://www.w3.org/TR/2001/REC-SVG-20010904/DTD/svg10.dtd">
<svg version="1.0" xmlns="http://www.w3.org/2000/svg"
 width="1024.000000pt" height="1024.000000pt" viewBox="0 0 1024.000000 1024.000000"
 preserveAspectRatio="xMidYMid meet">
<metadata>
Created by potrace 1.11, written by Peter Selinger 2001-2013
</metadata>
<g transform="translate(0.000000,1024.000000) scale(0.100000,-0.100000)"
fill="#000000" stroke="none">
<path d="M8960 8530 c0 -4 -10 -6 -22 -5 -13 1 -29 -3 -37 -9 -12 -9 -13 -8
-6 4 8 13 7 13 -9 1 -15 -13 -19 -13 -27 0 -7 12 -9 12 -9 -1 0 -14 -75 -41
-122 -43 -9 -1 -15 -3 -13 -6 3 -2 -18 -12 -47 -22 -41 -15 -54 -16 -67 -6
-14 10 -14 10 -3 -4 10 -14 10 -18 -4 -23 -9 -3 -20 -4 -25 0 -5 3 -9 0 -9 -7
0 -7 -3 -10 -6 -6 -4 3 -13 -1 -21 -9 -8 -8 -18 -12 -23 -9 -4 3 -13 -2 -20
-10 -6 -7 -18 -11 -26 -8 -8 3 -14 1 -14 -5 0 -9 -37 -25 -52 -23 -5 1 -8 -4
-8 -10 0 -6 -7 -8 -16 -5 -10 4 -13 2 -8 -6 5 -8 2 -9 -9 -5 -11 4 -17 1 -17
-8 0 -9 -6 -12 -15 -9 -8 4 -15 1 -15 -7 0 -7 -3 -10 -6 -6 -3 3 -27 -7 -52
-21 -26 -15 -66 -36 -89 -47 -24 -11 -43 -24 -43 -28 0 -5 -4 -6 -10 -2 -9 6
-44 -10 -68 -33 -7 -7 -18 -10 -23 -7 -5 4 -9 1 -9 -4 0 -6 -6 -11 -14 -11 -7
0 -19 -7 -26 -15 -7 -8 -16 -13 -20 -10 -5 3 -11 1 -15 -5 -4 -6 -11 -8 -16
-5 -5 4 -9 2 -9 -3 0 -12 -49 -34 -61 -26 -5 3 -8 0 -7 -6 2 -7 -6 -14 -16
-16 -10 -1 -22 -8 -26 -15 -4 -6 -13 -8 -19 -5 -6 4 -11 2 -11 -4 0 -7 -7 -10
-15 -6 -8 3 -14 0 -12 -7 1 -7 -4 -11 -10 -10 -7 2 -13 -2 -13 -9 0 -6 -3 -8
-7 -5 -3 4 -13 1 -21 -5 -8 -7 -21 -13 -30 -15 -9 -1 -18 -7 -20 -12 -2 -6
-11 -11 -21 -11 -9 0 -22 -5 -29 -12 -7 -7 -12 -8 -12 -2 0 5 -4 3 -9 -4 -5
-8 -20 -15 -34 -15 -14 -1 -23 -5 -21 -8 3 -6 -78 -45 -106 -51 -8 -2 -18 -7
-21 -11 -4 -5 -18 -10 -32 -10 -14 -1 -23 -5 -20 -9 2 -5 -1 -9 -6 -9 -19 -2
-51 -14 -88 -31 -11 -6 -27 -7 -34 -3 -8 5 -10 4 -5 -3 7 -11 3 -13 -36 -16
-7 -1 -15 -4 -18 -7 -7 -8 -142 -41 -165 -41 -10 1 -25 -4 -32 -10 -9 -8 -13
-7 -13 2 0 10 -3 10 -14 1 -10 -8 -16 -9 -21 -1 -3 6 -12 7 -18 3 -14 -8 -177
-11 -177 -3 0 3 -21 6 -47 7 -68 1 -113 6 -113 13 0 3 -12 6 -27 7 -47 2 -77
9 -99 21 -12 6 -24 9 -27 5 -4 -3 -13 -1 -20 5 -8 7 -17 9 -20 5 -4 -3 -7 2
-7 13 0 13 -3 15 -8 7 -6 -9 -29 -2 -90 28 -45 23 -82 45 -82 50 0 5 -7 9 -15
9 -9 0 -18 7 -21 15 -4 8 -9 13 -13 10 -4 -2 -14 5 -21 16 -8 10 -20 19 -27
19 -7 0 -13 4 -13 9 0 5 -20 29 -44 54 -25 25 -42 48 -39 51 4 3 -1 6 -10 6
-9 0 -17 5 -17 11 0 5 -12 24 -27 40 -16 16 -38 40 -50 53 -12 13 -19 27 -16
30 4 3 -1 6 -10 6 -9 0 -17 7 -17 17 0 9 -3 13 -6 10 -4 -3 -19 7 -34 23 -15
16 -39 32 -53 36 -15 3 -27 10 -27 14 0 5 -14 11 -30 15 -17 4 -30 10 -30 15
0 5 -8 9 -17 9 -145 7 -240 7 -248 3 -20 -12 -55 -11 -48 1 4 7 -1 5 -11 -3
-10 -8 -23 -15 -30 -16 -6 -1 -27 -5 -46 -9 -19 -4 -43 -7 -52 -8 -10 -1 -18
-5 -18 -9 0 -4 -7 -5 -15 -2 -8 4 -15 1 -15 -6 0 -9 -4 -9 -17 1 -10 9 -14 9
-10 2 5 -8 -6 -16 -35 -24 -24 -6 -49 -16 -55 -21 -7 -6 -13 -8 -13 -4 0 3
-16 0 -35 -8 -19 -8 -35 -12 -35 -9 0 3 -6 0 -13 -6 -8 -6 -17 -8 -20 -4 -4 3
-7 1 -7 -5 0 -7 -11 -12 -25 -12 -14 0 -25 -5 -25 -11 0 -6 -7 -9 -15 -5 -8 3
-15 2 -15 -3 0 -9 -48 -26 -62 -23 -5 1 -8 -3 -8 -9 0 -6 -6 -9 -14 -6 -8 3
-17 -1 -20 -10 -5 -12 -9 -13 -21 -3 -13 11 -14 10 -9 -5 5 -12 4 -16 -4 -11
-6 4 -23 -1 -37 -10 -14 -9 -25 -13 -25 -9 0 3 -7 -1 -16 -10 -9 -9 -23 -14
-30 -11 -8 3 -14 1 -14 -4 0 -6 -7 -10 -15 -10 -8 0 -15 -5 -15 -11 0 -5 -4
-7 -10 -4 -5 3 -10 1 -10 -4 0 -6 -3 -10 -7 -9 -5 1 -21 -5 -38 -12 -16 -7
-33 -13 -38 -12 -4 1 -7 -3 -7 -9 0 -7 -9 -9 -21 -6 -12 3 -18 3 -15 0 8 -8
-53 -45 -64 -38 -4 3 -11 -2 -14 -10 -3 -8 -9 -14 -13 -13 -15 4 -53 -13 -53
-24 0 -6 -9 -8 -20 -5 -11 3 -18 2 -15 -3 7 -11 -24 -22 -37 -13 -7 3 -8 1 -4
-5 4 -7 1 -12 -8 -12 -9 0 -16 -5 -16 -12 0 -6 -3 -8 -6 -5 -4 3 -16 1 -28 -5
-11 -7 -24 -11 -28 -10 -5 1 -7 -4 -5 -11 1 -6 -4 -11 -10 -10 -7 2 -13 -4
-13 -13 0 -10 -5 -14 -16 -10 -8 3 -13 2 -10 -3 3 -4 -14 -25 -37 -46 -23 -21
-41 -42 -40 -47 2 -4 -1 -8 -5 -8 -5 0 -46 -37 -92 -82 -45 -46 -87 -82 -92
-80 -5 1 -7 -2 -4 -7 3 -5 -9 -22 -27 -38 -18 -16 -36 -37 -40 -46 -3 -9 -13
-17 -22 -17 -8 0 -15 -4 -15 -10 0 -5 -33 -43 -74 -85 -40 -41 -72 -75 -71
-75 1 0 -12 -16 -31 -35 -18 -19 -37 -35 -43 -35 -6 0 -10 -3 -10 -7 4 -24 -3
-35 -17 -29 -8 3 -12 2 -9 -4 3 -6 -1 -13 -9 -16 -9 -3 -16 -11 -16 -18 0 -6
-13 -22 -30 -36 -16 -14 -30 -31 -30 -38 0 -7 -5 -10 -10 -7 -5 3 -10 -1 -10
-9 0 -8 -9 -17 -20 -21 -11 -3 -19 -10 -17 -14 3 -13 -125 -156 -139 -155 -7
1 -9 -7 -6 -19 4 -16 2 -19 -12 -14 -9 4 -15 3 -11 -3 3 -5 -8 -23 -24 -39
-17 -17 -27 -31 -24 -31 4 0 -9 -15 -29 -34 -20 -19 -34 -37 -31 -39 2 -3 -5
-11 -17 -17 -12 -6 -19 -14 -17 -17 3 -3 -8 -18 -24 -34 -16 -15 -29 -31 -29
-35 0 -4 -7 -14 -15 -23 -8 -9 -26 -28 -40 -43 -14 -16 -23 -28 -21 -28 6 0
-26 -39 -61 -75 -12 -13 -19 -25 -16 -28 3 -3 -4 -12 -16 -19 -12 -7 -21 -18
-21 -25 0 -7 -4 -13 -10 -13 -5 0 -10 -7 -10 -15 0 -7 -6 -18 -13 -22 -7 -4
-20 -21 -30 -36 -10 -15 -22 -25 -27 -22 -6 3 -7 0 -4 -8 3 -9 -4 -21 -15 -29
-12 -8 -18 -18 -14 -21 3 -4 1 -7 -5 -7 -7 0 -12 -6 -12 -14 0 -8 -4 -16 -8
-18 -5 -1 -25 -26 -44 -55 -20 -29 -38 -49 -42 -46 -3 4 -6 1 -6 -6 0 -7 -15
-34 -33 -59 -31 -45 -38 -55 -65 -86 -7 -9 -17 -27 -22 -41 -6 -16 -14 -23
-22 -19 -6 4 -8 3 -5 -3 4 -5 -2 -19 -13 -30 -10 -12 -16 -24 -13 -27 4 -3 1
-6 -5 -6 -7 0 -12 -6 -12 -13 0 -7 -11 -24 -25 -39 -14 -15 -25 -32 -25 -37 0
-5 -6 -16 -13 -23 -7 -7 -26 -34 -41 -60 -15 -27 -31 -48 -36 -48 -4 0 -10
-14 -14 -31 -3 -17 -10 -28 -16 -24 -5 3 -10 -1 -10 -9 0 -8 -6 -21 -13 -28
-7 -7 -16 -21 -20 -31 -4 -10 -11 -15 -17 -12 -5 3 -7 0 -4 -8 3 -8 -2 -21
-10 -30 -8 -8 -12 -17 -9 -21 4 -3 1 -6 -5 -6 -7 0 -12 -7 -12 -15 0 -8 -4
-15 -9 -15 -5 0 -15 -16 -21 -35 -6 -19 -15 -35 -19 -35 -4 0 -17 -19 -30 -42
-12 -24 -31 -56 -42 -73 -10 -16 -24 -42 -30 -57 -6 -16 -15 -25 -20 -22 -5 3
-8 2 -7 -3 1 -4 -2 -18 -6 -31 -5 -16 -13 -22 -24 -17 -13 5 -14 3 -5 -5 8 -9
6 -21 -10 -49 -12 -20 -25 -37 -29 -39 -4 -2 -8 -12 -8 -21 0 -10 -8 -29 -18
-42 -10 -13 -29 -46 -42 -74 -14 -27 -28 -53 -33 -56 -5 -3 -9 -13 -11 -21 -1
-8 -10 -27 -19 -41 -10 -15 -15 -27 -12 -27 4 0 -3 -13 -14 -29 -12 -16 -21
-36 -21 -44 0 -9 -6 -22 -13 -29 -7 -7 -19 -28 -26 -45 -7 -18 -17 -31 -21
-28 -5 3 -6 -5 -2 -17 3 -14 1 -19 -6 -14 -7 4 -10 -1 -7 -14 2 -11 0 -20 -4
-20 -5 0 -12 -11 -15 -25 -4 -14 -11 -23 -15 -20 -5 3 -7 -4 -4 -15 3 -11 0
-20 -6 -20 -6 0 -11 -7 -11 -16 0 -9 -9 -32 -21 -50 -11 -19 -17 -34 -13 -34
4 0 0 -8 -9 -18 -10 -10 -14 -22 -10 -25 3 -4 1 -7 -5 -7 -7 0 -11 -3 -10 -7
3 -18 -15 -62 -23 -57 -5 3 -9 2 -8 -3 3 -17 -14 -73 -22 -73 -5 0 -8 -3 -8
-7 1 -5 0 -10 -1 -13 -1 -3 -3 -12 -5 -20 -1 -8 -14 -41 -29 -72 -14 -31 -26
-64 -26 -72 0 -9 -5 -16 -10 -16 -6 0 -9 -3 -8 -7 4 -17 -14 -73 -23 -73 -6 0
-7 -4 -4 -10 3 -6 1 -10 -5 -10 -6 0 -8 -5 -5 -10 4 -6 2 -17 -4 -24 -7 -8
-11 -18 -9 -22 1 -5 -3 -19 -10 -30 -6 -12 -8 -25 -4 -29 4 -5 -2 -5 -12 -1
-16 6 -17 4 -6 -10 9 -10 10 -18 3 -22 -10 -7 -28 -60 -25 -74 1 -5 -2 -8 -6
-8 -5 0 -9 -7 -10 -15 -1 -8 -3 -22 -4 -30 -1 -8 -4 -15 -8 -15 -4 0 -7 -6 -8
-12 -1 -15 -10 -53 -12 -53 -1 0 -3 -8 -5 -18 -2 -10 -7 -26 -11 -35 -10 -22
-9 -21 -18 -64 -5 -21 -12 -38 -17 -38 -5 0 -8 -3 -7 -8 6 -19 -14 -92 -25
-92 -8 0 -7 -4 3 -10 12 -7 12 -10 1 -10 -7 0 -11 -6 -8 -15 4 -8 2 -17 -3
-20 -6 -4 -10 -17 -10 -30 0 -13 -5 -27 -10 -30 -6 -4 -10 -12 -9 -18 3 -28
-2 -58 -9 -53 -4 3 -7 -8 -6 -25 1 -16 -2 -29 -7 -29 -6 0 -9 -6 -8 -12 5 -25
-13 -108 -22 -102 -5 3 -6 -2 -3 -11 4 -8 0 -23 -7 -32 -10 -12 -10 -15 -2 -9
7 4 13 2 13 -3 0 -6 -5 -11 -10 -11 -6 0 -10 -6 -9 -12 3 -17 -12 -120 -19
-133 -3 -5 -7 -23 -8 -40 -1 -16 -2 -30 -4 -30 -2 0 -9 -49 -11 -82 -1 -13 -4
-23 -8 -23 -3 0 -7 -15 -7 -32 -1 -33 -11 -142 -19 -208 -3 -19 -8 -99 -11
-176 l-7 -141 24 2 c13 1 24 3 24 4 0 8 87 6 91 -1 4 -5 10 -5 17 0 18 14 118
13 110 -2 -4 -6 1 -5 11 3 12 10 20 11 28 3 8 -8 16 -7 28 1 14 8 23 7 36 -4
10 -8 15 -9 11 -3 -8 14 101 13 123 -1 9 -5 15 -4 18 4 3 9 7 9 18 0 8 -6 14
-7 14 -2 0 5 10 9 22 7 13 -1 23 -3 23 -5 0 -1 34 -3 75 -5 149 -5 171 -7 176
-16 3 -4 13 -5 22 0 9 4 28 7 42 5 14 -1 53 -3 87 -5 34 -2 65 -7 69 -11 4 -4
13 -2 21 4 7 6 13 8 13 3 0 -5 39 -9 88 -8 48 1 95 -3 106 -8 13 -7 16 -7 12
1 -4 6 -2 11 3 11 6 0 11 -6 11 -12 0 -10 3 -9 9 1 6 9 10 10 16 2 5 -9 10 -9
21 0 10 8 14 8 14 0 0 -6 5 -11 11 -11 5 0 7 5 3 12 -4 7 -3 8 4 4 20 -12 52
-15 52 -5 0 6 5 7 13 2 6 -4 30 -9 52 -9 22 -1 40 -3 40 -4 0 0 69 -2 153 -2
83 -1 152 -6 152 -11 0 -4 5 -5 11 -1 19 12 89 13 82 1 -4 -6 -1 -7 7 -2 18
11 70 14 70 4 0 -4 13 -4 28 1 16 4 36 4 45 -2 10 -5 17 -5 17 -1 0 5 23 8 50
8 28 0 50 -3 50 -8 0 -4 6 -5 12 -1 7 5 51 8 98 9 47 1 91 4 97 8 6 4 14 3 18
-2 3 -6 12 -8 19 -5 8 3 58 6 112 7 55 1 105 6 113 11 11 7 13 5 7 -9 -6 -15
-4 -16 10 -5 18 16 74 21 74 8 0 -5 6 -6 13 -1 20 13 87 13 87 0 0 -8 3 -9 8
-1 11 16 47 23 67 11 12 -6 16 -6 12 0 -4 7 11 11 37 11 44 1 156 10 191 16
11 2 26 -2 34 -8 11 -8 13 -8 8 1 -4 6 -3 14 3 18 5 3 10 1 10 -6 0 -8 4 -8
13 -2 6 5 33 9 59 9 25 -1 44 2 42 5 -2 4 11 7 29 7 39 -1 119 11 125 17 3 3
12 -1 20 -8 13 -10 14 -9 7 2 -6 11 -4 13 9 8 10 -4 23 -4 29 0 7 5 21 8 32 8
11 0 26 4 33 8 7 5 12 3 12 -5 0 -10 2 -10 9 0 4 8 10 13 12 12 2 -2 29 1 59
5 30 5 62 9 70 10 9 0 22 5 29 10 10 6 12 4 6 -6 -6 -11 -5 -12 6 -1 7 6 26
12 42 12 20 0 26 4 21 13 -6 9 -5 9 8 0 8 -7 17 -10 20 -7 7 6 56 16 86 17 12
1 22 4 22 7 0 7 11 9 60 12 17 1 30 5 30 9 0 4 11 6 25 4 14 -1 25 2 25 6 0 5
3 8 8 7 4 -1 23 2 42 6 19 4 43 8 52 10 10 1 21 5 24 9 4 4 14 1 22 -6 13 -9
14 -9 8 1 -4 6 -4 12 1 13 4 0 17 3 28 5 11 2 28 5 38 6 9 1 17 5 17 8 0 4 6
7 13 8 51 4 117 22 117 32 0 4 11 5 25 2 16 -3 25 0 25 8 0 7 6 10 14 7 7 -3
19 0 25 6 6 6 11 7 11 3 0 -5 6 -4 13 2 7 6 28 14 46 17 19 3 42 10 53 16 10
5 22 7 27 4 5 -3 11 -1 13 5 1 5 12 11 23 13 11 1 26 6 33 10 6 5 17 5 22 2 6
-3 10 -2 10 2 0 8 83 41 123 49 11 2 23 7 26 12 3 5 16 8 28 7 12 -1 20 2 18
6 -6 9 24 21 36 13 5 -3 9 0 9 5 0 6 9 11 20 11 11 0 20 5 20 10 0 6 9 10 19
10 11 0 23 5 26 10 5 8 11 7 21 -1 12 -10 13 -9 8 4 -4 12 -1 15 15 12 12 -2
19 0 16 6 -6 8 8 13 28 10 4 0 7 4 7 10 0 5 4 8 9 5 5 -3 14 1 21 10 11 12 15
12 21 2 7 -10 9 -9 9 3 0 9 7 16 15 17 8 1 22 3 30 4 8 1 12 5 10 9 -5 7 43
24 58 20 5 -1 6 2 3 7 -2 4 17 17 45 27 27 11 49 23 49 28 0 5 9 7 20 4 10 -3
18 -2 17 2 -1 3 2 7 7 8 5 1 12 5 15 10 3 5 27 20 54 33 26 14 47 28 47 32 0
4 8 5 18 1 9 -3 14 -3 10 2 -4 4 12 17 35 28 23 12 48 27 55 34 7 7 20 13 28
13 8 0 14 5 14 10 0 6 7 10 15 10 8 0 15 5 15 11 0 5 4 7 10 4 6 -3 10 -2 10
3 0 5 14 15 30 22 17 7 30 15 30 19 0 8 51 39 63 39 5 1 17 11 27 23 11 12 26
19 34 16 10 -4 13 -1 9 9 -3 7 0 14 6 14 7 0 21 9 33 20 12 10 25 17 30 14 5
-3 7 0 6 8 -2 7 3 12 10 10 7 -1 15 5 18 13 4 8 12 15 20 15 8 0 14 7 14 17 0
9 3 14 6 10 6 -5 15 0 49 31 8 7 15 10 15 6 0 -4 9 5 21 20 11 14 27 26 35 26
8 0 13 4 10 9 -3 5 8 14 24 21 16 7 27 16 25 20 -3 5 4 11 15 15 11 4 18 11
15 16 -4 5 1 9 9 9 9 0 16 5 16 10 0 6 4 10 10 10 13 0 59 48 52 54 -3 3 1 6
9 6 8 0 20 9 27 20 7 12 16 18 21 16 5 -3 11 4 14 15 3 12 10 18 16 15 5 -4
12 3 16 14 4 11 11 18 16 15 5 -4 9 -2 9 4 0 5 22 32 50 59 27 27 47 52 43 55
-3 4 0 7 8 7 8 0 23 14 34 30 11 16 26 30 32 30 7 0 12 3 10 8 -3 10 46 58 56
54 5 -1 6 2 2 8 -3 5 -1 10 5 10 6 0 9 4 6 8 -7 11 30 42 41 34 4 -4 5 -3 1 2
-10 13 11 48 24 40 6 -4 8 -3 5 3 -8 12 48 74 59 65 4 -4 4 -1 0 6 -5 8 2 22
17 36 14 13 24 26 22 28 -3 2 11 22 31 44 20 21 36 41 36 44 -1 3 8 15 18 28
11 12 18 22 15 22 -3 0 4 10 15 23 10 12 19 26 19 30 0 5 9 17 20 26 11 10 18
21 14 25 -3 3 -1 6 5 6 7 0 12 7 12 15 0 8 5 15 10 15 6 0 10 7 10 15 0 8 5
15 10 15 6 0 10 4 10 10 0 19 76 130 94 136 15 5 16 8 5 15 -11 6 -9 12 9 27
12 10 19 22 15 26 -3 3 0 6 7 6 7 0 11 3 7 6 -5 6 -2 12 28 47 6 7 19 29 28
50 10 21 25 37 35 37 14 0 15 2 2 10 -13 8 -12 10 1 15 9 3 16 11 16 18 0 21
35 67 46 60 6 -4 7 -1 2 6 -8 13 24 81 38 81 4 0 5 5 2 10 -3 6 1 13 10 16 9
4 14 12 11 19 -3 8 2 16 10 19 8 3 14 12 14 21 0 8 5 15 11 15 5 0 7 4 4 10
-3 6 -1 10 5 10 6 0 9 4 5 9 -3 5 0 15 7 23 17 17 63 111 60 121 -1 4 5 7 13
7 8 0 14 3 13 8 -4 15 14 52 23 47 5 -3 6 0 3 8 -3 8 2 22 11 31 9 9 13 16 9
16 -3 0 0 7 7 16 7 9 14 23 15 32 2 8 8 18 14 22 7 4 12 11 13 16 1 5 5 8 8 7
4 -1 5 7 2 17 -3 11 0 20 6 20 6 0 10 3 9 8 -1 4 22 55 50 113 29 59 52 112
52 118 0 6 5 11 12 11 6 0 8 3 5 6 -4 4 0 19 8 33 23 40 69 145 70 157 0 6 5
18 11 25 6 8 16 33 24 57 7 23 18 42 23 42 6 0 8 2 5 6 -10 9 30 99 43 96 10
-2 10 0 0 11 -9 12 -8 18 4 31 9 9 12 16 5 16 -6 0 -5 9 5 23 8 13 12 27 8 30
-3 4 -1 7 5 7 7 0 11 3 11 8 -4 18 15 72 24 72 6 0 8 3 5 6 -4 3 4 35 17 70
13 35 21 64 18 64 -3 0 -1 6 4 13 6 6 13 29 17 50 4 21 11 35 15 33 4 -3 7 5
6 17 -3 31 5 48 19 40 6 -4 6 0 -2 9 -8 10 -9 19 -3 22 9 6 27 83 23 99 -1 4
2 7 6 7 4 0 9 12 10 27 1 15 6 31 11 36 5 5 7 15 5 22 -3 7 2 29 10 49 9 23
11 36 4 36 -7 0 -7 4 0 13 6 7 12 24 14 37 2 14 7 31 11 38 5 6 5 12 1 12 -3
0 0 8 7 17 10 11 10 14 2 9 -7 -4 -13 -2 -13 3 0 6 5 11 12 11 6 0 8 3 5 7 -4
3 -2 12 4 20 9 10 8 13 0 13 -7 0 -9 5 -5 11 3 6 9 28 11 48 3 20 10 39 17 43
8 6 7 8 -2 8 -7 0 -10 5 -6 11 3 6 8 25 10 42 8 80 14 136 20 187 4 30 7 64 6
75 -1 11 4 23 11 27 9 6 9 8 0 8 -7 0 -13 5 -13 11 0 5 6 7 13 3 9 -5 9 -4 0
6 -8 9 -9 19 -3 31 7 11 7 20 0 24 -5 3 -10 12 -10 18 0 7 4 6 10 -3 8 -13 10
-12 10 3 0 9 -6 17 -12 17 -9 0 -10 3 -2 8 14 9 14 95 0 104 -7 5 -7 8 2 8 6
0 12 7 12 16 0 9 -5 12 -12 8 -7 -5 -8 -3 -3 7 12 19 14 49 3 49 -5 0 -4 9 2
20 7 14 7 20 0 20 -5 0 -10 5 -10 11 0 5 6 7 13 3 7 -5 7 -1 -2 10 -12 14 -12
19 -2 26 8 4 9 9 3 11 -6 2 -13 31 -16 64 -3 33 -7 69 -10 81 -2 11 -5 38 -7
60 -1 21 -7 44 -11 51 -5 7 -4 14 3 18 8 5 8 9 0 14 -6 4 -12 19 -13 34 -1 15
-5 27 -8 27 -3 0 -7 15 -8 32 -2 18 -7 37 -12 42 -6 6 -10 20 -10 31 0 12 -3
25 -7 29 -5 4 -8 11 -8 14 -1 22 -31 102 -38 102 -4 0 -6 4 -2 9 3 5 1 12 -5
16 -6 4 -8 11 -5 16 4 5 2 9 -2 9 -5 0 -19 24 -33 53 -14 28 -32 61 -42 71
-10 10 -15 23 -12 28 3 4 -2 8 -12 8 -11 0 -15 6 -11 19 3 12 -1 18 -12 17 -9
0 -15 5 -13 12 1 8 -1 11 -6 8 -11 -7 -42 30 -34 40 4 4 1 4 -6 0 -7 -4 -20
-2 -28 5 -17 14 -94 30 -94 19z m-1627 -1477 c6 -3 7 -1 3 5 -9 16 -5 15 33
-4 19 -10 30 -21 27 -30 -3 -7 0 -11 7 -8 11 4 64 -62 60 -75 -1 -3 5 -13 13
-22 8 -9 17 -26 19 -38 2 -12 11 -36 20 -53 18 -38 19 -41 3 -32 -7 4 -5 -2 6
-14 11 -13 16 -30 13 -42 -3 -11 -1 -18 4 -14 9 5 10 0 13 -71 1 -23 5 -45 8
-50 3 -6 6 -26 6 -45 0 -45 4 -63 17 -72 6 -5 6 -8 -1 -8 -7 0 -10 -22 -8 -65
2 -44 -1 -63 -8 -59 -7 4 -7 0 0 -12 5 -11 7 -35 5 -54 -2 -19 -5 -54 -6 -77
0 -24 -3 -43 -7 -43 -3 0 -6 -17 -7 -37 -1 -21 -4 -49 -7 -63 -2 -14 -8 -47
-12 -75 -3 -27 -9 -52 -13 -55 -3 -3 -7 -21 -9 -40 -1 -19 -6 -37 -10 -40 -4
-3 -7 -11 -8 -17 -1 -7 -2 -22 -2 -34 -1 -12 -6 -17 -13 -13 -7 4 -7 -1 1 -16
11 -20 10 -22 -3 -17 -11 4 -14 2 -10 -9 3 -7 2 -22 -2 -31 -4 -10 -9 -25 -10
-33 -4 -32 -17 -60 -25 -55 -4 3 -6 -3 -3 -14 3 -10 0 -22 -6 -25 -5 -4 -8
-13 -4 -21 3 -8 1 -15 -4 -15 -5 0 -9 -8 -10 -17 -1 -10 -6 -29 -11 -43 -5
-14 -10 -29 -11 -35 -1 -5 -9 -20 -17 -33 -9 -13 -17 -33 -20 -45 -2 -12 -8
-23 -14 -25 -6 -2 -7 -8 -4 -14 4 -5 -4 -23 -16 -40 -12 -16 -19 -35 -16 -43
2 -7 -2 -16 -10 -19 -9 -3 -12 -10 -9 -16 3 -5 1 -10 -4 -10 -6 0 -10 -3 -9
-7 4 -15 -21 -73 -31 -73 -6 0 -8 -7 -5 -15 4 -8 1 -15 -5 -15 -6 0 -10 -6 -9
-12 2 -7 -3 -12 -10 -10 -8 1 -11 -2 -8 -7 7 -11 -24 -81 -36 -81 -4 0 -5 -7
-2 -15 4 -9 0 -15 -9 -15 -8 0 -14 -8 -13 -17 0 -10 -4 -17 -10 -16 -6 1 -10
-8 -9 -20 1 -12 -3 -27 -9 -34 -29 -33 -34 -41 -29 -47 4 -3 1 -6 -6 -6 -7 0
-10 -4 -7 -9 3 -4 -3 -16 -14 -26 -11 -10 -17 -21 -15 -25 3 -4 -2 -13 -10
-20 -8 -7 -12 -16 -9 -21 3 -5 -2 -12 -10 -15 -9 -3 -13 -10 -10 -15 3 -5 0
-9 -5 -9 -6 0 -11 -6 -11 -14 0 -7 -7 -19 -15 -26 -8 -7 -12 -16 -9 -21 3 -5
0 -9 -5 -9 -6 0 -11 -7 -11 -15 0 -8 -4 -15 -9 -15 -5 0 -11 -9 -14 -21 -3
-12 -10 -18 -16 -14 -7 3 -8 0 -5 -9 4 -9 -1 -18 -10 -22 -9 -3 -16 -12 -16
-20 0 -7 -6 -17 -12 -21 -7 -4 -13 -15 -13 -23 0 -8 -6 -14 -13 -12 -6 1 -12
-1 -11 -5 2 -16 -14 -53 -22 -53 -5 0 -9 -5 -9 -11 0 -7 -8 -19 -19 -28 -10
-9 -21 -26 -25 -39 -4 -12 -11 -20 -16 -17 -4 2 -13 -9 -20 -25 -7 -17 -16
-30 -20 -30 -4 0 -18 -15 -31 -34 -13 -19 -27 -32 -31 -30 -4 3 -8 -1 -8 -8 0
-8 -9 -20 -20 -28 -11 -8 -20 -20 -20 -27 0 -6 -9 -15 -20 -18 -11 -3 -20 -11
-20 -16 0 -5 -25 -34 -55 -64 -30 -31 -55 -54 -55 -51 0 2 -21 -16 -46 -40
-26 -24 -51 -41 -57 -37 -6 3 -7 1 -3 -5 3 -6 -5 -19 -20 -29 -14 -10 -34 -26
-45 -35 -10 -10 -19 -15 -19 -11 0 3 -8 -3 -17 -13 -20 -22 -63 -51 -77 -52
-5 0 -13 -7 -18 -16 -5 -9 -16 -16 -23 -16 -8 0 -15 -4 -15 -10 0 -5 -7 -10
-15 -10 -8 0 -15 -4 -15 -10 0 -5 -11 -12 -25 -16 -14 -3 -25 -10 -25 -15 0
-5 -7 -9 -15 -9 -8 0 -15 -5 -15 -11 0 -6 -6 -9 -14 -6 -8 3 -16 0 -19 -6 -2
-7 -28 -23 -56 -37 -28 -14 -51 -29 -51 -33 0 -5 -4 -6 -9 -2 -5 3 -17 -2 -25
-11 -9 -8 -16 -12 -16 -8 0 5 -5 3 -12 -4 -7 -7 -20 -12 -29 -12 -10 0 -19 -4
-21 -10 -1 -5 -14 -11 -27 -13 -14 -2 -27 -9 -29 -15 -2 -7 -8 -12 -13 -12 -6
0 -7 6 -4 13 4 6 1 5 -7 -3 -15 -18 -75 -42 -101 -42 -9 1 -15 -3 -12 -9 5 -8
-19 -13 -28 -6 -2 1 -11 -4 -21 -12 -9 -8 -19 -11 -22 -8 -4 3 -13 -1 -21 -9
-8 -8 -19 -12 -24 -9 -5 4 -9 2 -9 -4 0 -5 -8 -8 -17 -6 -10 1 -23 -1 -28 -6
-6 -4 -24 -10 -40 -13 -15 -3 -32 -10 -35 -17 -6 -8 -9 -8 -15 0 -5 9 -10 9
-20 1 -8 -7 -20 -8 -26 -4 -8 4 -9 3 -5 -4 4 -7 0 -12 -11 -13 -19 -1 -34 -4
-43 -8 -7 -3 -41 -12 -65 -16 -11 -2 -20 -4 -20 -5 0 -4 -43 -11 -76 -13 -21
-1 -35 -5 -32 -9 2 -5 1 -8 -4 -9 -4 0 -20 -2 -35 -4 -17 -2 -28 1 -28 8 0 9
-2 9 -8 1 -8 -13 -40 -24 -85 -29 -18 -2 -54 -7 -82 -10 -27 -4 -59 -8 -70 -9
-11 -1 -26 -5 -32 -9 -8 -5 -13 -3 -13 5 0 10 -2 10 -8 1 -8 -12 -98 -23 -219
-26 -35 -1 -63 -4 -63 -7 0 -3 -29 -5 -65 -5 -36 0 -65 -4 -65 -8 0 -5 -5 -5
-10 -2 -6 4 -7 11 -4 17 4 5 -5 2 -20 -7 -20 -14 -26 -14 -26 -4 0 12 -2 12
-9 0 -7 -10 -13 -11 -30 -1 -18 9 -26 9 -38 -2 -20 -16 -16 -16 -38 2 -11 8
-16 10 -12 4 5 -9 -18 -12 -83 -12 -63 1 -88 4 -83 12 3 6 0 5 -8 -1 -18 -18
-113 -18 -103 0 6 9 5 9 -7 0 -18 -14 -59 -13 -59 2 0 6 -3 7 -8 0 -9 -13 -65
-17 -57 -5 4 6 1 10 -4 10 -6 0 -11 -4 -11 -8 0 -4 -9 -8 -20 -8 -11 0 -20 4
-20 9 0 6 -5 6 -12 0 -7 -5 -24 -8 -38 -6 -14 2 -52 4 -85 5 -33 0 -63 6 -67
12 -5 8 -8 7 -8 -1 0 -7 -5 -13 -11 -13 -5 0 -7 5 -3 11 4 8 0 8 -15 0 -11 -7
-21 -8 -21 -4 0 4 -41 8 -91 8 -50 0 -93 3 -96 8 -2 4 -13 2 -24 -3 -10 -6
-19 -7 -19 -3 0 12 -374 13 -381 2 -3 -6 -12 -2 -20 7 -12 15 -12 17 0 9 11
-6 12 -5 5 6 -5 8 -9 38 -9 66 0 40 4 53 15 53 12 1 11 3 -3 11 -10 6 -14 15
-10 22 4 7 9 30 10 51 1 22 8 43 15 47 10 7 10 9 0 9 -9 0 -10 6 -4 18 4 9 7
27 6 40 0 12 2 22 5 22 4 0 6 12 5 27 -1 32 13 101 27 126 6 11 6 17 -2 17 -8
0 -9 4 0 13 6 8 8 17 4 20 -3 4 -2 7 3 7 5 0 10 12 11 28 0 15 6 41 13 57 7
17 14 45 16 63 2 18 7 38 11 45 4 6 9 23 11 37 2 13 9 28 15 32 7 4 9 8 5 8
-4 0 -1 18 7 41 8 23 12 45 9 50 -3 5 -1 9 4 9 5 0 15 20 21 45 6 25 17 45 24
45 8 0 7 4 -3 10 -11 7 -11 10 -2 10 7 0 10 5 7 10 -3 6 -1 10 5 10 7 0 10 7
6 15 -3 8 0 15 6 15 6 0 8 3 5 7 -4 3 -2 12 4 20 6 7 8 13 5 13 -4 0 0 10 8
22 9 12 16 29 16 38 0 8 13 41 29 72 16 32 24 55 17 52 -6 -3 -2 2 8 10 11 9
16 16 11 16 -5 0 -4 5 3 12 7 7 12 20 12 30 0 10 5 18 12 18 6 0 8 3 5 6 -3 4
-1 16 5 28 7 11 11 24 10 29 -1 4 3 7 9 7 5 0 7 5 4 10 -3 6 -1 10 4 10 6 0
10 3 9 8 -3 13 14 42 22 37 5 -3 6 4 3 15 -3 11 0 20 6 20 6 0 10 6 8 13 -1 6
3 11 8 10 6 -1 11 6 11 15 1 29 8 46 23 58 8 6 16 20 17 30 2 10 8 20 13 22 6
2 11 10 11 17 0 16 32 79 43 83 4 2 7 10 7 18 0 8 5 14 10 14 6 0 10 9 10 20
0 11 7 20 15 20 9 0 12 6 9 15 -4 8 -2 15 4 15 5 0 13 11 16 25 4 14 11 25 17
25 6 0 7 5 4 10 -3 6 -2 10 3 10 9 0 37 52 30 58 -1 2 5 8 15 13 9 6 17 17 17
25 0 8 4 12 10 9 6 -3 7 1 4 9 -4 11 0 16 11 16 10 0 13 5 9 12 -4 6 1 17 11
25 11 7 16 13 12 13 -5 0 -2 7 5 15 7 9 18 21 23 28 6 7 16 24 24 40 8 15 18
27 23 27 4 0 8 5 8 11 0 6 11 25 25 43 14 18 25 38 25 45 0 7 4 10 9 7 5 -3
11 4 14 15 4 13 10 18 18 13 8 -5 10 -3 4 6 -5 8 -1 18 10 27 11 7 16 13 12
13 -3 0 5 12 18 26 14 15 25 31 25 36 0 5 14 22 30 38 17 17 28 30 25 30 -3 0
4 10 15 23 12 12 30 37 42 55 11 17 25 29 30 26 6 -4 8 -3 5 3 -3 5 5 22 19
38 13 15 24 32 24 37 0 5 4 6 10 3 6 -3 10 1 10 10 0 8 7 18 15 21 8 4 15 10
15 15 0 4 12 22 28 38 15 17 45 51 67 77 22 25 59 66 82 90 22 24 38 44 35 44
-4 1 3 6 15 13 21 12 23 15 23 38 0 5 4 8 8 5 10 -6 43 30 35 38 -6 6 12 10
30 7 4 0 6 2 6 6 -3 18 1 36 7 30 7 -7 34 17 34 29 0 15 102 104 112 97 7 -4
8 -1 4 6 -9 14 90 114 105 106 5 -3 6 2 2 11 -4 12 -3 15 5 10 7 -4 12 -3 12
2 0 5 9 12 20 15 33 9 34 9 48 26 10 12 12 12 6 1 -6 -12 -4 -12 12 1 28 24
121 68 128 62 3 -4 6 -1 6 6 0 7 6 11 14 8 8 -3 16 -3 18 1 6 14 68 43 78 37
6 -3 10 -2 10 2 0 5 9 14 21 21 17 11 20 11 13 0 -4 -7 1 -6 12 3 10 9 27 15
37 14 9 -2 15 0 12 5 -5 8 45 24 61 20 4 -1 10 3 14 9 3 7 20 13 37 14 17 1
29 5 27 8 -2 4 3 10 12 13 9 3 12 2 8 -5 -4 -7 -1 -7 12 0 34 19 134 39 134
27 0 -7 3 -7 8 -1 9 13 62 17 62 4 0 -6 7 -6 20 1 13 7 20 7 20 1 0 -6 6 -8
14 -5 8 3 17 1 21 -5 3 -6 15 -11 25 -11 11 0 41 -22 67 -48 58 -59 114 -122
108 -122 -2 0 7 -11 21 -25 14 -14 28 -25 31 -25 3 0 14 -9 24 -21 9 -11 19
-20 21 -19 6 3 63 -25 70 -35 4 -5 8 -6 8 -2 0 4 8 3 18 -2 17 -9 43 -16 97
-26 45 -9 66 -14 77 -21 6 -4 8 -3 5 3 -3 5 1 10 9 10 9 0 13 -6 9 -15 -4 -12
-2 -12 8 -4 8 7 17 9 20 5 4 -3 7 -1 7 6 0 7 5 9 12 4 14 -8 108 -11 108 -3 0
3 8 6 18 7 9 1 31 4 47 8 17 4 38 8 48 9 9 0 17 4 17 9 0 5 7 7 15 3 8 -3 15
-2 15 3 0 14 39 20 44 7 2 -6 5 -3 5 7 1 10 6 15 11 12 6 -3 10 -1 10 5 0 7 7
10 15 6 8 -3 15 0 15 5 0 6 9 9 20 6 13 -3 20 0 20 8 0 12 54 32 73 27 5 -2 6
2 2 8 -5 9 8 14 19 8 2 -2 13 5 24 16 12 10 32 19 45 20 15 0 23 6 20 14 -3 7
3 12 16 12 12 0 21 4 21 10 0 5 6 7 13 4 7 -2 22 4 34 15 11 11 24 17 27 14 3
-4 6 -1 6 6 0 7 4 10 9 6 5 -3 13 0 16 6 4 5 14 8 22 5 8 -3 11 -1 8 4 -5 9
-1 11 20 10 3 -1 13 6 21 15 9 8 19 13 24 10 4 -3 11 2 14 11 3 8 10 12 16 9
5 -3 10 -1 10 6 0 7 3 10 6 6 3 -3 26 6 50 19 25 14 50 22 56 18 6 -4 8 -3 5
3 -6 10 37 29 56 25 4 -1 7 3 7 9 0 6 6 9 14 6 8 -3 17 1 20 8 3 8 12 12 21 9
8 -3 15 -2 15 4 0 6 11 9 25 8 13 -2 22 1 19 5 -3 5 9 9 26 9 17 0 29 4 25 9
-6 10 41 5 58 -6z"/>
<path d="M6824 6696 c-3 -8 -14 -13 -24 -11 -10 2 -24 -3 -30 -11 -7 -7 -16
-11 -21 -8 -5 3 -9 0 -9 -7 0 -8 -5 -7 -17 2 -9 8 -14 9 -10 3 6 -10 -10 -23
-33 -28 -3 -1 -35 -17 -72 -35 -39 -19 -72 -30 -80 -25 -7 4 -10 4 -6 -1 4 -4
0 -14 -8 -23 -14 -13 -17 -13 -25 -1 -7 11 -9 11 -9 -3 0 -10 -10 -20 -25 -24
-14 -3 -25 -10 -25 -16 0 -5 -4 -7 -9 -3 -5 3 -12 1 -16 -5 -4 -6 -11 -8 -16
-5 -5 4 -9 2 -9 -3 0 -6 -20 -18 -45 -29 -25 -10 -45 -21 -45 -25 0 -5 -5 -8
-11 -8 -5 0 -31 -10 -57 -21 -25 -12 -53 -22 -61 -24 -8 -1 -17 -7 -19 -13 -2
-7 -8 -9 -13 -6 -6 3 -16 0 -24 -6 -8 -6 -27 -14 -42 -16 -15 -3 -36 -6 -45
-8 -10 -1 -21 -5 -24 -9 -4 -4 -14 -1 -22 6 -11 8 -14 8 -9 0 4 -6 3 -14 -3
-18 -5 -3 -10 -2 -10 4 0 7 -8 7 -24 1 -13 -5 -27 -6 -30 -3 -3 3 -29 8 -58
10 -59 4 -75 7 -100 18 -10 4 -24 5 -32 2 -8 -3 -17 1 -20 10 -4 8 -13 13 -21
9 -8 -3 -15 -1 -15 5 0 6 -4 8 -8 5 -5 -3 -14 4 -22 14 -8 10 -17 17 -22 14
-4 -3 -11 2 -14 10 -3 9 -10 16 -16 16 -12 0 -57 52 -58 67 0 7 -3 12 -7 11
-5 -1 -29 19 -54 44 -26 26 -50 44 -53 41 -3 -4 -6 0 -6 7 0 7 -3 10 -7 7 -3
-4 -15 1 -26 10 -11 10 -17 12 -13 5 9 -16 -25 -13 -36 2 -4 6 -13 4 -22 -3
-9 -8 -16 -9 -16 -4 0 5 -9 9 -20 9 -11 0 -20 -4 -20 -9 0 -5 -9 -7 -20 -4
-11 3 -20 1 -20 -3 0 -5 -9 -7 -20 -5 -11 2 -20 0 -20 -4 0 -14 -38 -19 -51
-7 -9 8 -10 8 -6 0 7 -13 -13 -24 -43 -24 -10 0 -20 -4 -22 -10 -1 -5 -12 -11
-23 -13 -11 -2 -35 -11 -52 -20 -18 -10 -33 -14 -33 -10 0 5 -4 2 -9 -5 -5 -8
-20 -15 -34 -15 -14 -1 -23 -5 -21 -8 7 -13 -24 -17 -35 -6 -9 9 -11 8 -7 -3
4 -10 -7 -21 -37 -34 -23 -10 -49 -18 -57 -16 -8 1 -12 -1 -8 -6 4 -4 -4 -13
-18 -21 -22 -11 -30 -11 -42 -1 -12 10 -14 10 -8 1 8 -14 -86 -113 -106 -113
-6 0 -9 -3 -5 -6 7 -7 -55 -70 -65 -66 -5 1 -8 -3 -8 -8 0 -6 -16 -25 -35 -44
-19 -18 -31 -36 -28 -40 4 -3 -2 -6 -12 -6 -10 0 -16 -2 -13 -5 3 -3 -23 -35
-57 -70 -34 -36 -61 -65 -59 -65 2 0 -6 -10 -18 -22 -13 -13 -27 -22 -31 -20
-5 1 -6 -1 -3 -6 7 -11 -39 -64 -48 -55 -4 4 -4 -1 0 -11 5 -14 4 -17 -4 -12
-7 4 -12 2 -12 -3 0 -17 -33 -50 -43 -44 -6 3 -7 1 -3 -5 5 -9 -34 -66 -59
-84 -6 -5 -7 -8 0 -8 6 0 -1 -7 -15 -15 -14 -8 -22 -14 -17 -15 4 0 0 -11 -9
-25 -9 -14 -21 -22 -27 -18 -6 3 -7 1 -3 -5 4 -7 -3 -22 -16 -35 -13 -13 -25
-27 -28 -32 -3 -6 -9 -9 -13 -7 -5 1 -6 -2 -3 -7 4 -5 -1 -16 -9 -24 -8 -9
-15 -21 -15 -27 0 -7 -7 -9 -17 -5 -14 4 -15 3 -7 -5 9 -9 4 -20 -17 -43 -16
-17 -26 -33 -24 -35 3 -3 -7 -15 -20 -28 -14 -13 -25 -26 -26 -29 0 -14 -15
-43 -35 -64 -13 -14 -21 -28 -18 -33 3 -4 0 -8 -7 -8 -7 0 -10 -3 -6 -6 3 -4
1 -12 -6 -20 -29 -33 -37 -44 -37 -53 0 -6 -10 -20 -22 -32 -13 -12 -16 -18
-8 -14 11 6 10 3 -2 -12 -10 -11 -18 -25 -18 -31 0 -7 -5 -12 -12 -12 -6 0 -9
-3 -5 -6 3 -4 -1 -13 -9 -21 -8 -8 -11 -20 -7 -26 4 -6 1 -8 -8 -5 -10 4 -14
-3 -16 -20 0 -14 -9 -32 -20 -39 -10 -8 -17 -17 -16 -21 5 -13 -8 -42 -18 -42
-6 0 -8 -4 -4 -9 3 -5 1 -12 -5 -16 -6 -4 -8 -11 -5 -16 4 -5 2 -9 -2 -9 -9 0
-48 -80 -45 -92 1 -5 -3 -8 -8 -8 -6 0 -10 -9 -10 -20 0 -11 -5 -20 -11 -20
-5 0 -7 -4 -4 -10 3 -5 1 -10 -4 -10 -6 0 -10 -3 -9 -7 3 -12 -13 -56 -25 -71
-6 -8 -12 -23 -14 -35 -2 -11 -8 -26 -13 -32 -5 -7 -7 -15 -3 -18 3 -4 1 -7
-6 -7 -7 0 -10 -4 -6 -9 3 -5 1 -12 -5 -16 -5 -3 -10 -17 -10 -31 0 -15 -4
-23 -10 -19 -6 4 -10 3 -9 -2 4 -16 -13 -83 -22 -83 -5 0 -6 -7 -3 -15 4 -8 1
-15 -5 -15 -6 0 -8 -7 -5 -15 4 -8 2 -15 -4 -15 -6 0 -9 -8 -8 -17 2 -9 -3
-28 -10 -43 -8 -14 -16 -44 -20 -66 -3 -21 -9 -43 -12 -49 -4 -5 -8 -19 -10
-30 -5 -31 -10 -50 -12 -50 -1 0 -4 -11 -6 -25 -6 -41 -9 -55 -15 -65 -4 -5
-5 -20 -4 -32 1 -13 -1 -23 -5 -23 -3 0 -6 -10 -7 -22 -1 -13 -4 -43 -8 -68
-3 -25 -7 -65 -9 -90 -1 -25 -6 -51 -10 -58 -4 -7 -3 -12 3 -12 6 0 7 -8 2
-22 -4 -11 -6 -31 -3 -44 4 -20 8 -22 58 -19 38 3 54 1 54 -8 0 -7 3 -8 8 -2
4 6 22 11 41 13 25 3 31 0 25 -10 -6 -10 -4 -11 7 -3 8 6 25 9 39 8 14 -1 40
-4 58 -6 17 -2 32 0 32 4 0 10 54 -3 62 -15 5 -8 8 -7 8 1 0 13 34 13 46 0 4
-3 15 -2 25 4 13 7 19 6 19 -1 0 -6 5 -8 13 -3 17 10 37 13 37 4 0 -13 784
-10 792 3 6 8 8 7 8 -2 0 -7 5 -10 11 -7 18 12 69 12 69 1 0 -6 5 -4 10 4 8
12 11 13 19 1 7 -10 9 -11 13 -1 2 8 24 14 54 15 28 1 56 5 62 9 7 4 12 2 12
-4 0 -7 6 -8 19 0 11 5 40 11 65 12 25 2 46 7 46 12 0 4 7 6 15 2 8 -3 26 -1
40 4 18 7 25 6 25 -3 0 -8 4 -7 10 3 5 8 10 11 10 6 0 -5 6 -4 13 2 6 6 31 9
53 9 27 -1 40 2 37 9 -2 7 9 10 31 9 20 -1 36 2 36 5 0 4 11 6 25 5 14 -2 23
1 19 6 -5 8 26 14 50 10 4 -1 14 3 20 8 7 6 23 13 37 15 13 3 25 5 27 7 2 2 4
2 47 14 17 4 41 14 54 22 18 12 22 12 15 2 -6 -11 -5 -12 7 -3 8 6 26 14 42
18 15 3 27 11 27 17 0 7 6 6 17 -2 12 -10 15 -10 9 -1 -5 8 2 14 23 18 17 4
31 11 31 16 0 6 7 8 15 4 8 -3 15 -1 15 5 0 6 5 7 10 4 6 -3 10 -1 10 5 0 6 5
8 10 5 6 -3 10 -1 10 4 0 6 9 11 20 11 11 0 20 5 20 10 0 6 3 10 8 9 15 -2 52
14 52 23 0 5 4 7 9 3 5 -3 12 -1 15 4 10 15 84 50 91 43 4 -4 5 0 3 8 -2 9 3
14 13 12 9 -1 19 4 23 13 3 8 12 15 21 15 8 0 15 5 15 12 0 6 3 9 6 5 3 -3 14
3 25 14 11 11 25 17 31 13 7 -4 8 -3 4 4 -4 8 3 16 19 22 14 5 28 16 31 25 3
8 10 13 14 10 4 -3 11 2 14 11 4 9 9 14 12 11 3 -3 19 8 35 24 15 16 33 29 39
29 6 0 8 5 5 10 -3 6 -2 10 4 10 5 0 41 31 79 69 39 38 73 67 76 65 3 -2 4 -1
1 2 -6 9 56 80 67 76 4 -1 7 1 6 5 -4 15 23 54 33 48 5 -4 8 -1 7 7 -2 7 3 12
10 10 8 -1 11 2 7 7 -8 14 16 51 33 51 7 0 10 5 7 10 -3 6 -1 10 5 10 6 0 9 4
5 9 -3 6 3 14 12 20 10 6 14 11 9 11 -6 0 -1 7 10 16 10 8 12 13 4 9 -8 -4 -5
2 7 13 12 11 20 22 17 24 -2 3 2 11 11 18 8 7 15 19 15 26 0 8 5 14 10 14 6 0
10 6 10 14 0 8 7 16 15 20 8 3 15 15 15 26 0 11 6 23 14 26 8 3 17 17 20 30 4
15 11 22 18 18 7 -5 8 -3 3 5 -4 8 1 25 14 42 11 15 21 33 21 39 0 5 5 10 11
10 5 0 7 5 4 10 -3 6 -1 10 5 10 6 0 9 4 6 9 -4 5 -3 11 2 13 9 4 64 114 62
124 -1 4 5 11 14 16 9 5 14 13 11 19 -4 5 -1 9 5 9 6 0 8 5 5 10 -3 6 -1 10 5
10 6 0 8 5 5 10 -3 6 -1 10 4 10 6 0 10 3 9 8 -5 16 22 72 34 72 9 0 9 3 -2
10 -8 5 -10 10 -4 10 10 0 44 67 44 88 0 7 4 12 10 12 5 0 7 7 4 15 -3 8 1 24
10 37 9 12 16 30 16 40 0 10 4 18 10 18 5 0 9 3 8 8 -4 13 25 111 32 107 3 -2
6 4 7 13 3 43 8 62 15 62 4 0 5 7 2 15 -4 8 -1 15 6 15 6 0 8 5 5 10 -4 6 -2
17 4 24 6 7 9 20 5 29 -3 8 0 18 5 22 6 3 9 11 6 16 -4 5 -3 15 2 22 4 6 8 25
8 40 0 15 7 32 15 37 9 6 10 10 3 10 -12 0 -12 44 0 56 3 3 3 13 0 22 -5 11
-3 13 8 7 12 -8 12 -6 0 8 -7 9 -10 17 -5 17 13 0 12 53 -1 62 -7 5 -7 8 1 8
6 0 10 30 10 80 -1 47 3 80 9 80 6 0 6 3 0 8 -6 4 -10 16 -10 27 0 11 -4 26
-10 34 -8 12 -7 13 5 6 12 -7 13 -6 4 6 -6 8 -10 26 -9 42 1 15 -1 27 -5 27
-3 0 -7 11 -8 25 -3 46 -5 55 -12 55 -6 0 -8 8 -12 50 -1 11 -6 20 -10 20 -4
0 -8 7 -8 15 0 17 -20 56 -34 66 -5 4 -5 13 -1 20 5 8 5 11 1 8 -4 -4 -23 9
-43 27 -38 36 -87 46 -111 22 -9 -9 -12 -9 -12 0 0 17 -19 15 -26 -2z"/>
</g>
</svg>
